<svg width="151" height="39" viewBox="0 0 151 39" fill="none" xmlns="http://www.w3.org/2000/svg">
<path d="M22.8505 21.9315C22.8247 21.8804 22.7848 21.8386 22.7332 21.8084L22.0881 21.4578L22.1139 21.4508C23.0569 21.1977 23.9084 20.5916 24.5229 19.816C25.1375 19.0404 25.5199 18.0907 25.5199 17.1525C25.5199 17.1014 25.5175 17.0457 25.5152 16.9853L25.5363 16.9806C25.806 16.9087 26.0617 16.8738 26.3033 16.8738C26.7936 16.8738 27.2299 17.0132 27.5747 17.2663C27.9148 17.5171 28.1658 17.8817 28.2901 18.3345C28.3487 18.5458 28.3792 18.7734 28.3792 19.0149C28.3792 19.823 28.0438 20.6496 27.502 21.3323C26.9601 22.015 26.2119 22.5492 25.3885 22.7698C24.8279 22.9207 24.3095 22.9068 23.8733 22.7558C23.4393 22.6072 23.0828 22.3216 22.8529 21.9315L22.8505 21.9315ZM22.3133 29.8314V22.2216L19.4563 20.6681V27.9688C19.4563 28.1104 19.4891 28.2289 19.5478 28.3217C19.5806 28.3752 19.6252 28.4239 19.6768 28.4611L19.8152 28.5377L19.8222 28.5424L22.3133 29.9008C22.3133 29.8776 22.3109 29.8544 22.3109 29.8312L22.3133 29.8314ZM41.6558 5.20009L39.1366 3.83001C39.0826 3.80679 39.0216 3.79054 38.9583 3.78357C38.8645 3.77196 38.7589 3.78125 38.6463 3.81144L36.3663 4.42446C36.3241 4.99338 36.1458 5.55764 35.8667 6.0778C35.7095 6.37039 35.5195 6.65137 35.3037 6.91143L41.6558 5.20009ZM42.1695 18.4711C41.6488 18.9309 41.0342 19.2815 40.3727 19.458C40.0584 19.5416 39.7535 19.5834 39.4579 19.5834C38.841 19.5834 38.2898 19.4046 37.8511 19.0795C37.4078 18.7544 37.0841 18.2854 36.9246 17.7094C36.8542 17.4563 36.819 17.18 36.819 16.8828C36.819 15.9423 37.199 14.9948 37.816 14.2192C38.4305 13.4459 39.282 12.8399 40.225 12.5844C40.8982 12.4033 41.5315 12.4242 42.0757 12.61C42.3759 12.7145 42.648 12.8677 42.8826 13.0674V6.2429C42.8826 6.17092 42.8732 6.10357 42.8568 6.0432C42.8216 5.9178 42.7536 5.81563 42.6621 5.74828C42.6363 5.72971 42.6058 5.71113 42.5753 5.6972L42.566 5.69255C42.4886 5.65772 42.4018 5.63914 42.3032 5.63914C42.2305 5.63914 42.1531 5.64843 42.0734 5.67165L34.396 7.73839C34.2436 7.78019 34.0888 7.68963 34.0465 7.54101C34.0137 7.42026 34.0653 7.29718 34.1638 7.23216C34.6588 6.85133 35.0763 6.359 35.3672 5.81566C35.6369 5.31175 35.7988 4.76374 35.8105 4.22497V4.17853V4.15298C35.8105 3.91148 35.78 3.68391 35.7214 3.47261C35.597 3.01979 35.346 2.65521 35.0059 2.4044C34.9004 2.32777 34.7878 2.26043 34.6681 2.2047C34.6611 2.20238 34.6541 2.19773 34.647 2.19541C34.3773 2.07465 34.0677 2.00964 33.7346 2.00964C33.493 2.00964 33.2373 2.04447 32.9676 2.11646C32.1442 2.33706 31.3983 2.87114 30.8541 3.55389C30.3123 4.23658 29.9769 5.06331 29.9769 5.87138C29.9769 6.41941 30.1317 6.88382 30.3991 7.23914C30.6688 7.59675 31.0535 7.84288 31.511 7.94971C31.6189 7.96597 31.7127 8.0426 31.7432 8.15406C31.7854 8.305 31.6939 8.45826 31.5438 8.50006L23.8287 10.5761C23.5683 10.6457 23.329 10.8176 23.1531 11.0382C22.9795 11.2588 22.8716 11.5212 22.8716 11.772V18.1929C23.0804 17.9119 23.3196 17.6518 23.5824 17.4196C24.1031 16.9598 24.7177 16.6092 25.3792 16.4327C25.6911 16.3491 25.9984 16.3073 26.294 16.3073C26.9108 16.3073 27.4621 16.4861 27.9031 16.8112C28.3464 17.1363 28.6701 17.6053 28.8297 18.1812C28.9 18.4344 28.9352 18.7107 28.9352 19.0079C28.9352 19.9484 28.5552 20.8958 27.9383 21.6715C27.3237 22.4447 26.4722 23.0508 25.5293 23.3062C24.8561 23.4874 24.2227 23.4665 23.6786 23.2807C23.3783 23.1762 23.1062 23.0229 22.8716 22.8232V29.8243C22.8716 29.8963 22.881 29.9637 22.8974 30.024C22.9326 30.1494 23.0006 30.2516 23.0921 30.3189C23.1062 30.3306 23.1226 30.3398 23.139 30.3491L23.1531 30.3561L23.1601 30.3607C23.2422 30.4049 23.3431 30.4281 23.451 30.4281C23.5214 30.4281 23.5988 30.4165 23.6809 30.3956L31.396 28.3196C31.5485 28.2778 31.7033 28.3683 31.7455 28.5169C31.7784 28.6377 31.7268 28.7608 31.6282 28.8258C31.1333 29.2066 30.7158 29.699 30.4249 30.2423C30.1434 30.7694 29.9792 31.343 29.9792 31.905C29.9792 32.1465 30.0097 32.3741 30.0684 32.5854C30.1927 33.0382 30.4437 33.4028 30.7838 33.6536C30.8424 33.6977 30.9058 33.7372 30.9715 33.7743L30.9996 33.7906C31.0019 33.7929 31.0066 33.7952 31.009 33.7975C31.3092 33.9601 31.6634 34.0483 32.0528 34.0483C32.2944 34.0483 32.5501 34.0135 32.8198 33.9415C33.6432 33.7209 34.3891 33.1868 34.9333 32.5041C35.4751 31.8214 35.8105 30.9947 35.8105 30.1866C35.8105 29.6386 35.6557 29.1741 35.3883 28.8188C35.1186 28.4612 34.7339 28.2151 34.2764 28.1083C34.1685 28.092 34.0747 28.0154 34.0442 27.9039C34.002 27.753 34.0935 27.5997 34.2436 27.5579L41.9209 25.4912C42.1813 25.4215 42.4205 25.2497 42.5965 25.0291C42.77 24.8085 42.8779 24.5461 42.8779 24.2952V17.6978C42.6692 17.9788 42.4299 18.2389 42.1672 18.4711H42.1695ZM23.6857 10.0391L30.601 8.17673C30.35 8.01882 30.1295 7.81912 29.9489 7.57994C29.6112 7.13176 29.4165 6.55121 29.4165 5.87547C29.4165 4.93502 29.7965 3.98755 30.4134 3.21194C31.0279 2.43865 31.8794 1.83259 32.8224 1.57714C32.9936 1.5307 33.1625 1.49819 33.3291 1.47729L31.3188 0.378885C31.3164 0.376563 31.3141 0.376563 31.3094 0.374241C31.0842 0.260453 30.8309 0.188468 30.5565 0.162924C30.2445 0.132736 29.9067 0.162924 29.5478 0.258135C28.7245 0.478737 27.9785 1.01282 27.4344 1.69557C26.8925 2.37826 26.5571 3.20499 26.5571 4.01306C26.5571 4.56109 26.7119 5.0255 26.9793 5.38082C27.2491 5.73843 27.6337 5.98456 28.0912 6.09139C28.1991 6.10764 28.2929 6.18428 28.3234 6.29574C28.3656 6.44668 28.2742 6.59994 28.124 6.64174L20.4089 8.71775C20.2658 8.75723 20.1274 8.82689 20.0031 8.91746L23.0431 10.3618C23.2331 10.2132 23.4512 10.0971 23.6811 10.0367L23.6857 10.0391ZM22.3111 11.7807C22.3111 11.4347 22.4354 11.0887 22.6419 10.7938L19.6183 9.35866C19.515 9.53747 19.4541 9.7302 19.4541 9.92062V17.2148L22.3111 18.7683L22.3111 11.7807ZM30.4905 29.153L26.5661 30.2095C26.5896 30.6113 26.6975 30.9619 26.8734 31.2545C27.0728 31.5865 27.3636 31.842 27.7155 31.9999C27.7272 32.0045 27.7389 32.0092 27.7506 32.0161L29.6295 33.0426C29.5897 32.945 29.5545 32.8429 29.5263 32.736C29.4559 32.4829 29.4208 32.2066 29.4208 31.9094C29.4208 31.2499 29.6084 30.588 29.9298 29.9843C30.0869 29.6917 30.2769 29.4107 30.4927 29.1507L30.4905 29.153ZM38.8553 16.5068C38.4402 16.8969 37.9593 17.215 37.4409 17.4287C37.4503 17.4728 37.462 17.5169 37.4737 17.561C37.598 18.0139 37.849 18.3784 38.1891 18.6292C38.5316 18.8824 38.9679 19.0217 39.4605 19.0217C39.7021 19.0217 39.9578 18.9869 40.2275 18.9149C40.8022 18.7593 41.3394 18.4528 41.7945 18.051C42.2049 17.6888 42.5474 17.2522 42.7961 16.7762L39.8687 15.1855C39.613 15.6732 39.2682 16.126 38.8577 16.5092L38.8553 16.5068Z" fill="#1C1C1C"/>
<mask id="path-2-inside-1_1835_2454" fill="white">
<path d="M3.37456 26.9004C3.34892 26.8497 3.3093 26.8081 3.25803 26.7781L2.61713 26.4297L2.64276 26.4228C3.57965 26.1713 4.42567 25.5692 5.03627 24.7985C5.64686 24.0279 6.02679 23.0843 6.02679 22.1521C6.02679 22.1014 6.02446 22.046 6.02213 21.986L6.04311 21.9814C6.31113 21.9099 6.56516 21.8753 6.80518 21.8753C7.29228 21.8753 7.72579 22.0137 8.06837 22.2652C8.40631 22.5144 8.65568 22.8766 8.7792 23.3265C8.83746 23.5365 8.86776 23.7626 8.86776 24.0025C8.86776 24.8055 8.53449 25.6268 7.99614 26.3051C7.45778 26.9834 6.71434 27.5141 5.8963 27.7333C5.33929 27.8833 4.82421 27.8694 4.39076 27.7195C3.9596 27.5718 3.60536 27.288 3.37697 26.9004L3.37456 26.9004ZM2.84085 34.7495V27.1886L0.00220143 25.6451V32.8988C0.00220143 33.0396 0.0348305 33.1573 0.0930927 33.2495C0.125721 33.3026 0.170004 33.3511 0.221273 33.388L0.358778 33.4641L0.36577 33.4687L2.84083 34.8185C2.84083 34.7954 2.8385 34.7723 2.8385 34.7493L2.84085 34.7495ZM22.0589 10.2767L19.5559 8.91539C19.5023 8.89232 19.4417 8.87616 19.3788 8.86924C19.2855 8.85771 19.1807 8.86694 19.0688 8.89693L16.8034 9.50601C16.7615 10.0713 16.5844 10.6319 16.307 11.1487C16.1509 11.4394 15.9621 11.7186 15.7477 11.977L22.0589 10.2767ZM22.5693 23.4623C22.0519 23.9191 21.4413 24.2675 20.7841 24.4428C20.4718 24.5259 20.1688 24.5674 19.8752 24.5674C19.2623 24.5674 18.7146 24.3898 18.2787 24.0668C17.8382 23.7438 17.5166 23.2777 17.3581 22.7055C17.2882 22.454 17.2532 22.1795 17.2532 21.8842C17.2532 20.9497 17.6308 20.0084 18.2438 19.2378C18.8544 18.4694 19.7004 17.8673 20.6373 17.6135C21.3062 17.4335 21.9354 17.4543 22.4761 17.6389C22.7744 17.7427 23.0447 17.895 23.2778 18.0934V11.3128C23.2778 11.2412 23.2685 11.1743 23.2522 11.1143C23.2172 10.9897 23.1497 10.8882 23.0588 10.8213C23.0331 10.8029 23.0028 10.7844 22.9725 10.7706L22.9632 10.7659C22.8863 10.7313 22.8001 10.7129 22.7022 10.7129C22.6299 10.7129 22.553 10.7221 22.4738 10.7452L14.8459 12.7986C14.6944 12.8402 14.5406 12.7502 14.4986 12.6025C14.466 12.4825 14.5172 12.3602 14.6151 12.2957C15.1069 11.9173 15.5217 11.4281 15.8107 10.8883C16.0787 10.3876 16.2395 9.84311 16.2512 9.3078V9.26166V9.23628C16.2512 8.99633 16.2209 8.77022 16.1626 8.56028C16.0391 8.11038 15.7897 7.74814 15.4518 7.49895C15.3469 7.42281 15.2351 7.3559 15.1162 7.30053C15.1092 7.29822 15.1022 7.29361 15.0952 7.2913C14.8272 7.17132 14.5196 7.10672 14.1887 7.10672C13.9486 7.10672 13.6946 7.14133 13.4266 7.21286C12.6085 7.43204 11.8674 7.96268 11.3267 8.64104C10.7884 9.31934 10.4551 10.1408 10.4551 10.9436C10.4551 11.4881 10.6089 11.9496 10.8746 12.3026C11.1426 12.6579 11.5248 12.9024 11.9793 13.0086C12.0865 13.0247 12.1798 13.1009 12.2101 13.2116C12.252 13.3616 12.1611 13.5139 12.012 13.5554L4.34646 15.618C4.08776 15.6873 3.85004 15.858 3.67525 16.0772C3.50278 16.2964 3.39558 16.5571 3.39558 16.8063V23.1859C3.603 22.9067 3.84072 22.6483 4.10175 22.4175C4.61914 21.9607 5.22974 21.6123 5.88699 21.4369C6.19695 21.3539 6.50223 21.3124 6.79589 21.3124C7.40881 21.3124 7.95652 21.49 8.39468 21.813C8.83517 22.136 9.15676 22.6021 9.31529 23.1743C9.38521 23.4258 9.42016 23.7003 9.42016 23.9956C9.42016 24.93 9.04261 25.8714 8.42964 26.642C7.81904 27.4104 6.97302 28.0125 6.03613 28.2663C5.36725 28.4463 4.73798 28.4255 4.19732 28.2409C3.899 28.1371 3.62866 27.9848 3.39556 27.7864V34.7425C3.39556 34.814 3.40489 34.8809 3.4212 34.9409C3.45616 35.0655 3.52375 35.167 3.61464 35.2339C3.62862 35.2454 3.64494 35.2547 3.66125 35.2639L3.67523 35.2708L3.68223 35.2754C3.7638 35.3193 3.86401 35.3423 3.97122 35.3423C4.04114 35.3423 4.11805 35.3308 4.19962 35.31L11.8651 33.2474C12.0166 33.2059 12.1704 33.2958 12.2124 33.4435C12.245 33.5635 12.1937 33.6858 12.0959 33.7504C11.6041 34.1287 11.1893 34.6179 10.9003 35.1578C10.6206 35.6815 10.4575 36.2514 10.4575 36.8097C10.4575 37.0497 10.4878 37.2758 10.546 37.4857C10.6695 37.9356 10.9189 38.2979 11.2568 38.5471C11.3151 38.5909 11.378 38.6301 11.4433 38.667L11.4713 38.6832C11.4736 38.6855 11.4783 38.6878 11.4806 38.6901C11.7789 38.8516 12.1308 38.9393 12.5177 38.9393C12.7578 38.9393 13.0118 38.9047 13.2798 38.8332C14.0978 38.614 14.839 38.0833 15.3796 37.405C15.918 36.7267 16.2512 35.9053 16.2512 35.1024C16.2512 34.5579 16.0974 34.0965 15.8317 33.7434C15.5637 33.3881 15.1815 33.1436 14.727 33.0374C14.6198 33.0213 14.5266 32.9451 14.4963 32.8344C14.4543 32.6844 14.5452 32.5321 14.6944 32.4906L22.3223 30.4372C22.581 30.368 22.8187 30.1972 22.9935 29.978C23.166 29.7589 23.2732 29.4981 23.2732 29.249V22.6939C23.0658 22.9731 22.828 23.2315 22.567 23.4623L22.5693 23.4623ZM4.20443 15.0845L11.0752 13.2341C10.8259 13.0772 10.6068 12.8788 10.4274 12.6412C10.0917 12.1959 9.89831 11.6191 9.89831 10.9477C9.89831 10.0133 10.2759 9.07191 10.8888 8.30129C11.4994 7.53298 12.3454 6.93081 13.2823 6.67701C13.4525 6.63087 13.6203 6.59857 13.7857 6.5778L11.7884 5.48646C11.7861 5.48416 11.7837 5.48416 11.7791 5.48185C11.5553 5.36879 11.3036 5.29727 11.031 5.27189C10.721 5.2419 10.3854 5.27189 10.0288 5.36649C9.21077 5.58567 8.46963 6.11632 7.92896 6.79467C7.3906 7.47297 7.05735 8.29439 7.05735 9.09725C7.05735 9.64176 7.21116 10.1032 7.47685 10.4562C7.74487 10.8115 8.12706 11.0561 8.58157 11.1622C8.68878 11.1784 8.782 11.2545 8.8123 11.3652C8.85425 11.5152 8.76336 11.6675 8.6142 11.709L0.948688 13.7717C0.806523 13.8109 0.669017 13.8801 0.545497 13.9701L3.56594 15.4052C3.75472 15.2575 3.97146 15.1422 4.19986 15.0822L4.20443 15.0845ZM2.83869 16.8149C2.83869 16.4712 2.96221 16.1274 3.1673 15.8343L0.163143 14.4085C0.060594 14.5861 0 14.7776 0 14.9668V22.214L2.83865 23.7576L2.83869 16.8149ZM10.9654 34.0754L7.06629 35.1252C7.0896 35.5243 7.1968 35.8727 7.3716 36.1634C7.5697 36.4933 7.8587 36.7471 8.20825 36.904C8.21991 36.9086 8.23156 36.9133 8.24321 36.9202L10.11 37.94C10.0704 37.8431 10.0354 37.7416 10.0075 37.6354C9.93754 37.384 9.90259 37.1094 9.90259 36.8141C9.90259 36.1588 10.089 35.5013 10.4083 34.9014C10.5645 34.6107 10.7533 34.3315 10.9677 34.0731L10.9654 34.0754ZM19.2765 21.5106C18.8639 21.8982 18.3862 22.2143 17.8711 22.4266C17.8804 22.4704 17.8921 22.5142 17.9037 22.5581C18.0272 23.008 18.2766 23.3702 18.6146 23.6194C18.9548 23.8709 19.3883 24.0093 19.8777 24.0093C20.1178 24.0093 20.3718 23.9747 20.6398 23.9032C21.2108 23.7486 21.7445 23.4441 22.1967 23.0449C22.6045 22.685 22.9448 22.2512 23.1918 21.7783L20.2833 20.1978C20.0292 20.6823 19.6866 21.1322 19.2788 21.513L19.2765 21.5106Z"/>
</mask>
<path d="M3.37456 26.9004C3.34892 26.8497 3.3093 26.8081 3.25803 26.7781L2.61713 26.4297L2.64276 26.4228C3.57965 26.1713 4.42567 25.5692 5.03627 24.7985C5.64686 24.0279 6.02679 23.0843 6.02679 22.1521C6.02679 22.1014 6.02446 22.046 6.02213 21.986L6.04311 21.9814C6.31113 21.9099 6.56516 21.8753 6.80518 21.8753C7.29228 21.8753 7.72579 22.0137 8.06837 22.2652C8.40631 22.5144 8.65568 22.8766 8.7792 23.3265C8.83746 23.5365 8.86776 23.7626 8.86776 24.0025C8.86776 24.8055 8.53449 25.6268 7.99614 26.3051C7.45778 26.9834 6.71434 27.5141 5.8963 27.7333C5.33929 27.8833 4.82421 27.8694 4.39076 27.7195C3.9596 27.5718 3.60536 27.288 3.37697 26.9004L3.37456 26.9004ZM2.84085 34.7495V27.1886L0.00220143 25.6451V32.8988C0.00220143 33.0396 0.0348305 33.1573 0.0930927 33.2495C0.125721 33.3026 0.170004 33.3511 0.221273 33.388L0.358778 33.4641L0.36577 33.4687L2.84083 34.8185C2.84083 34.7954 2.8385 34.7723 2.8385 34.7493L2.84085 34.7495ZM22.0589 10.2767L19.5559 8.91539C19.5023 8.89232 19.4417 8.87616 19.3788 8.86924C19.2855 8.85771 19.1807 8.86694 19.0688 8.89693L16.8034 9.50601C16.7615 10.0713 16.5844 10.6319 16.307 11.1487C16.1509 11.4394 15.9621 11.7186 15.7477 11.977L22.0589 10.2767ZM22.5693 23.4623C22.0519 23.9191 21.4413 24.2675 20.7841 24.4428C20.4718 24.5259 20.1688 24.5674 19.8752 24.5674C19.2623 24.5674 18.7146 24.3898 18.2787 24.0668C17.8382 23.7438 17.5166 23.2777 17.3581 22.7055C17.2882 22.454 17.2532 22.1795 17.2532 21.8842C17.2532 20.9497 17.6308 20.0084 18.2438 19.2378C18.8544 18.4694 19.7004 17.8673 20.6373 17.6135C21.3062 17.4335 21.9354 17.4543 22.4761 17.6389C22.7744 17.7427 23.0447 17.895 23.2778 18.0934V11.3128C23.2778 11.2412 23.2685 11.1743 23.2522 11.1143C23.2172 10.9897 23.1497 10.8882 23.0588 10.8213C23.0331 10.8029 23.0028 10.7844 22.9725 10.7706L22.9632 10.7659C22.8863 10.7313 22.8001 10.7129 22.7022 10.7129C22.6299 10.7129 22.553 10.7221 22.4738 10.7452L14.8459 12.7986C14.6944 12.8402 14.5406 12.7502 14.4986 12.6025C14.466 12.4825 14.5172 12.3602 14.6151 12.2957C15.1069 11.9173 15.5217 11.4281 15.8107 10.8883C16.0787 10.3876 16.2395 9.84311 16.2512 9.3078V9.26166V9.23628C16.2512 8.99633 16.2209 8.77022 16.1626 8.56028C16.0391 8.11038 15.7897 7.74814 15.4518 7.49895C15.3469 7.42281 15.2351 7.3559 15.1162 7.30053C15.1092 7.29822 15.1022 7.29361 15.0952 7.2913C14.8272 7.17132 14.5196 7.10672 14.1887 7.10672C13.9486 7.10672 13.6946 7.14133 13.4266 7.21286C12.6085 7.43204 11.8674 7.96268 11.3267 8.64104C10.7884 9.31934 10.4551 10.1408 10.4551 10.9436C10.4551 11.4881 10.6089 11.9496 10.8746 12.3026C11.1426 12.6579 11.5248 12.9024 11.9793 13.0086C12.0865 13.0247 12.1798 13.1009 12.2101 13.2116C12.252 13.3616 12.1611 13.5139 12.012 13.5554L4.34646 15.618C4.08776 15.6873 3.85004 15.858 3.67525 16.0772C3.50278 16.2964 3.39558 16.5571 3.39558 16.8063V23.1859C3.603 22.9067 3.84072 22.6483 4.10175 22.4175C4.61914 21.9607 5.22974 21.6123 5.88699 21.4369C6.19695 21.3539 6.50223 21.3124 6.79589 21.3124C7.40881 21.3124 7.95652 21.49 8.39468 21.813C8.83517 22.136 9.15676 22.6021 9.31529 23.1743C9.38521 23.4258 9.42016 23.7003 9.42016 23.9956C9.42016 24.93 9.04261 25.8714 8.42964 26.642C7.81904 27.4104 6.97302 28.0125 6.03613 28.2663C5.36725 28.4463 4.73798 28.4255 4.19732 28.2409C3.899 28.1371 3.62866 27.9848 3.39556 27.7864V34.7425C3.39556 34.814 3.40489 34.8809 3.4212 34.9409C3.45616 35.0655 3.52375 35.167 3.61464 35.2339C3.62862 35.2454 3.64494 35.2547 3.66125 35.2639L3.67523 35.2708L3.68223 35.2754C3.7638 35.3193 3.86401 35.3423 3.97122 35.3423C4.04114 35.3423 4.11805 35.3308 4.19962 35.31L11.8651 33.2474C12.0166 33.2059 12.1704 33.2958 12.2124 33.4435C12.245 33.5635 12.1937 33.6858 12.0959 33.7504C11.6041 34.1287 11.1893 34.6179 10.9003 35.1578C10.6206 35.6815 10.4575 36.2514 10.4575 36.8097C10.4575 37.0497 10.4878 37.2758 10.546 37.4857C10.6695 37.9356 10.9189 38.2979 11.2568 38.5471C11.3151 38.5909 11.378 38.6301 11.4433 38.667L11.4713 38.6832C11.4736 38.6855 11.4783 38.6878 11.4806 38.6901C11.7789 38.8516 12.1308 38.9393 12.5177 38.9393C12.7578 38.9393 13.0118 38.9047 13.2798 38.8332C14.0978 38.614 14.839 38.0833 15.3796 37.405C15.918 36.7267 16.2512 35.9053 16.2512 35.1024C16.2512 34.5579 16.0974 34.0965 15.8317 33.7434C15.5637 33.3881 15.1815 33.1436 14.727 33.0374C14.6198 33.0213 14.5266 32.9451 14.4963 32.8344C14.4543 32.6844 14.5452 32.5321 14.6944 32.4906L22.3223 30.4372C22.581 30.368 22.8187 30.1972 22.9935 29.978C23.166 29.7589 23.2732 29.4981 23.2732 29.249V22.6939C23.0658 22.9731 22.828 23.2315 22.567 23.4623L22.5693 23.4623ZM4.20443 15.0845L11.0752 13.2341C10.8259 13.0772 10.6068 12.8788 10.4274 12.6412C10.0917 12.1959 9.89831 11.6191 9.89831 10.9477C9.89831 10.0133 10.2759 9.07191 10.8888 8.30129C11.4994 7.53298 12.3454 6.93081 13.2823 6.67701C13.4525 6.63087 13.6203 6.59857 13.7857 6.5778L11.7884 5.48646C11.7861 5.48416 11.7837 5.48416 11.7791 5.48185C11.5553 5.36879 11.3036 5.29727 11.031 5.27189C10.721 5.2419 10.3854 5.27189 10.0288 5.36649C9.21077 5.58567 8.46963 6.11632 7.92896 6.79467C7.3906 7.47297 7.05735 8.29439 7.05735 9.09725C7.05735 9.64176 7.21116 10.1032 7.47685 10.4562C7.74487 10.8115 8.12706 11.0561 8.58157 11.1622C8.68878 11.1784 8.782 11.2545 8.8123 11.3652C8.85425 11.5152 8.76336 11.6675 8.6142 11.709L0.948688 13.7717C0.806523 13.8109 0.669017 13.8801 0.545497 13.9701L3.56594 15.4052C3.75472 15.2575 3.97146 15.1422 4.19986 15.0822L4.20443 15.0845ZM2.83869 16.8149C2.83869 16.4712 2.96221 16.1274 3.1673 15.8343L0.163143 14.4085C0.060594 14.5861 0 14.7776 0 14.9668V22.214L2.83865 23.7576L2.83869 16.8149ZM10.9654 34.0754L7.06629 35.1252C7.0896 35.5243 7.1968 35.8727 7.3716 36.1634C7.5697 36.4933 7.8587 36.7471 8.20825 36.904C8.21991 36.9086 8.23156 36.9133 8.24321 36.9202L10.11 37.94C10.0704 37.8431 10.0354 37.7416 10.0075 37.6354C9.93754 37.384 9.90259 37.1094 9.90259 36.8141C9.90259 36.1588 10.089 35.5013 10.4083 34.9014C10.5645 34.6107 10.7533 34.3315 10.9677 34.0731L10.9654 34.0754ZM19.2765 21.5106C18.8639 21.8982 18.3862 22.2143 17.8711 22.4266C17.8804 22.4704 17.8921 22.5142 17.9037 22.5581C18.0272 23.008 18.2766 23.3702 18.6146 23.6194C18.9548 23.8709 19.3883 24.0093 19.8777 24.0093C20.1178 24.0093 20.3718 23.9747 20.6398 23.9032C21.2108 23.7486 21.7445 23.4441 22.1967 23.0449C22.6045 22.685 22.9448 22.2512 23.1918 21.7783L20.2833 20.1978C20.0292 20.6823 19.6866 21.1322 19.2788 21.513L19.2765 21.5106Z" fill="#F2F1EF" stroke="#1C1C1C" stroke-width="0.7" mask="url(#path-2-inside-1_1835_2454)"/>
<path d="M56.1709 27.5V11.999H62.7773C66.2363 11.999 68.4707 14.1689 68.4707 17.4883V17.5098C68.4707 20.8291 66.2363 22.9561 62.7773 22.9561H60.1133V27.5H56.1709ZM61.832 15.0176H60.1133V19.9912H61.832C63.4971 19.9912 64.4854 19.1211 64.4854 17.5098V17.4883C64.4854 15.877 63.4971 15.0176 61.832 15.0176ZM73.9385 27.7471C71.3711 27.7471 69.9102 26.1035 69.9102 23.332V15.8018H73.7236V22.5156C73.7236 23.8584 74.3467 24.6533 75.6035 24.6533C76.8066 24.6533 77.5693 23.7402 77.5693 22.4404V15.8018H81.3721V27.5H77.5693V25.4375H77.4941C76.9033 26.9092 75.7109 27.7471 73.9385 27.7471ZM83.0156 27.5V25.4805L88.6016 18.6699V18.5947H83.1445V15.8018H92.9629V18.1221L87.8818 24.6318V24.707H93.1455V27.5H83.0156ZM94.5742 27.5V25.4805L100.16 18.6699V18.5947H94.7031V15.8018H104.521V18.1221L99.4404 24.6318V24.707H104.704V27.5H94.5742ZM106.401 27.5V11.999H110.215V27.5H106.401ZM117.702 27.7471C114.007 27.7471 111.762 25.4375 111.762 21.6562V21.6455C111.762 17.8857 114.018 15.5547 117.573 15.5547C121.107 15.5547 123.353 17.8643 123.353 21.4092V22.5264H115.489C115.532 24.1055 116.392 25.04 117.777 25.04C119.002 25.04 119.668 24.3418 119.84 23.8584L119.851 23.8047H123.288L123.256 23.9336C122.901 25.5557 121.43 27.7471 117.702 27.7471ZM117.659 18.2617C116.542 18.2617 115.736 18.9922 115.543 20.2812H119.765C119.571 18.9707 118.776 18.2617 117.659 18.2617ZM128.509 27.5L133.729 11.999H138.553L143.773 27.5H139.638L138.671 24.0947H133.611L132.645 27.5H128.509ZM136.104 15.3721L134.428 21.2588H137.854L136.179 15.3721H136.104ZM145.267 27.5V11.999H149.209V27.5H145.267Z" fill="#1C1C1C"/>
</svg>
