<svg width="198" height="221" viewBox="0 0 198 221" fill="none" xmlns="http://www.w3.org/2000/svg">
<path d="M106.667 86.7334C109.121 86.7334 111.111 88.7232 111.111 91.1777V126.733C111.111 129.188 109.121 131.178 106.667 131.178H71.1109C68.6563 131.178 66.6665 133.168 66.6665 135.622V215.622C66.6665 218.077 64.6767 220.066 62.2222 220.066H26.6665C24.2119 220.066 22.2222 218.077 22.2222 215.622V91.1777C22.2222 89.9505 22.7197 88.8394 23.5239 88.0352C23.6245 87.9346 23.7296 87.8386 23.8394 87.748C24.0589 87.5668 24.2963 87.4064 24.5483 87.2695C24.6743 87.2011 24.8041 87.1392 24.937 87.083C25.2029 86.9706 25.4817 86.8824 25.771 86.8232C25.9157 86.7936 26.063 86.771 26.2124 86.7559C26.3617 86.7407 26.5132 86.7334 26.6665 86.7334H106.667Z" fill="#933CFF"/>
<rect x="99.752" y="44.4717" width="88.8889" height="44.4444" rx="4.44444" transform="rotate(-15 99.752 44.4717)" fill="#FFB5FA"/>
<rect x="94.0005" y="23.0068" width="22.2222" height="22.2222" rx="4.44444" transform="rotate(-15 94.0005 23.0068)" fill="#542ACC"/>
<rect x="126.197" y="14.3799" width="22.2222" height="22.2222" rx="4.44444" transform="rotate(-15 126.197 14.3799)" fill="#542ACC"/>
<rect x="124.092" y="49.4521" width="11.1111" height="11.1111" rx="4.44444" transform="rotate(-15 124.092 49.4521)" fill="#231F20"/>
<rect y="86.7334" width="22.2222" height="22.2222" rx="4.44444" fill="#542ACC"/>
<path d="M151.112 86.7334C153.566 86.7337 155.556 88.7233 155.556 91.1777V215.622C155.556 218.077 153.565 220.066 151.111 220.066H115.556C113.102 220.066 111.112 218.077 111.112 215.622V180.067C111.112 177.612 109.122 175.622 106.667 175.622H71.1108C68.6564 175.622 66.6666 173.632 66.6665 171.178V135.622C66.6665 133.168 68.6564 131.178 71.1108 131.178H106.667C109.122 131.178 111.112 129.188 111.112 126.733V91.1777C111.112 88.7232 113.102 86.7334 115.556 86.7334H151.112Z" fill="#00DE8C"/>
</svg>
