<svg width="200" height="200" viewBox="0 0 200 200" fill="none" xmlns="http://www.w3.org/2000/svg">
<rect x="111.111" y="22.2227" width="88.8889" height="44.4444" rx="4.44444" fill="#FFB5FA"/>
<path d="M106.667 66.667C109.121 66.667 111.111 68.6568 111.111 71.1113V106.667C111.111 109.122 109.121 111.111 106.667 111.111H71.1109C68.6563 111.111 66.6665 113.101 66.6665 115.556V195.556C66.6665 198.01 64.6767 200 62.2222 200H26.6665C24.2119 200 22.2222 198.01 22.2222 195.556V71.1113C22.2222 69.8841 22.7197 68.773 23.5239 67.9688C23.6245 67.8682 23.7296 67.7722 23.8394 67.6816C24.0589 67.5004 24.2963 67.34 24.5483 67.2031C24.6743 67.1347 24.8041 67.0728 24.937 67.0166C25.2029 66.9042 25.4817 66.816 25.771 66.7568C25.9157 66.7272 26.063 66.7046 26.2124 66.6895C26.3617 66.6743 26.5132 66.667 26.6665 66.667H106.667Z" fill="#933CFF"/>
<rect x="111.111" width="22.2222" height="22.2222" rx="4.44444" fill="#542ACC"/>
<rect x="144.444" width="22.2222" height="22.2222" rx="4.44444" fill="#542ACC"/>
<rect x="133.333" y="33.333" width="11.1111" height="11.1111" rx="4.44444" fill="#231F20"/>
<rect y="66.667" width="22.2222" height="22.2222" rx="4.44444" fill="#542ACC"/>
<path d="M151.112 66.667C153.566 66.6673 155.556 68.6569 155.556 71.1113V195.556C155.556 198.01 153.565 200 151.111 200H115.556C113.102 200 111.112 198.01 111.112 195.556V160C111.112 157.546 109.122 155.556 106.667 155.556H71.1108C68.6564 155.556 66.6666 153.566 66.6665 151.111V115.556C66.6665 113.101 68.6564 111.111 71.1108 111.111H106.667C109.122 111.111 111.112 109.121 111.112 106.667V71.1113C111.112 68.6568 113.102 66.667 115.556 66.667H151.112Z" fill="#00DE8C"/>
</svg>
